# xmcd
#
# Track frame offsets:
#	150
#	23978
#	45303
#	66026
#	88434
#	106580
#	133597
#	152150
#	184919
#	203434
#	220807
#	261081
#	281710
#	304179
#
# Disc length: 4306 seconds
#
# Revision: 1
# Processed by: cddbd v1.5.2PL0 Copyright (c) Steve Scherf et al.
# Submitted via: audiograbber 1.83.01
#
DISCID=c310d00e
DTITLE=B.B. King and His Friends - Blues Summit
DYEAR=1900
DGENRE=Blues
TTITLE0=Playing with My Friends
TTITLE1=Since I Met You Baby
TTITLE2=I Pity The Fool
TTITLE3=You Shook Me
TTITLE4=Something You Got
TTITLE5=There's Something on Your Mind
TTITLE6=Little by Little
TTITLE7=Call It Stormy Monday
TTITLE8=You Are The Boss
TTITLE9=We Are Gonna Make It
TTITLE10=I Gotta Move Out Of This
TTITLE11=Everybody Had The Blues
TTITLE12=Merry You
TTITLE13=When Loves Come To Town
EXTD=
EXTT0=
EXTT1=
EXTT2=
EXTT3=
EXTT4=
EXTT5=
EXTT6=
EXTT7=
EXTT8=
EXTT9=
EXTT10=
EXTT11=
EXTT12=
EXTT13=
PLAYORDER=
